# xmcd
#
# Track frame offsets:
#	150
#	19840
#	36017
#	55050
#	65650
#	80571
#	96496
#
# Disc length: 1445 seconds
#
# Revision: 0
# Processed by: cddbd v1.5.1PL0 Copyright (c) Steve Scherf et al.
# Submitted via: dBpowerAMP V4.0
#
DISCID=5905a307
DTITLE=Jake Nickolai - Think About You
DYEAR=2005
DGENRE=Country
TTITLE0=Think About You
TTITLE1=3 Days Drivin'
TTITLE2=Suddenly I
TTITLE3=Sidewinder
TTITLE4=Faster
TTITLE5=Miss You Love
TTITLE6=A Little Too Much
EXTD=
EXTT0=
EXTT1=
EXTT2=
EXTT3=
EXTT4=
EXTT5=
EXTT6=
PLAYORDER=
